<svg version="1.1" id="Layer_1" xmlns="http://www.w3.org/2000/svg" xmlns:xlink="http://www.w3.org/1999/xlink" x="0px" y="0px"
	 width="100%" viewBox="0 0 1024 1024" enable-background="new 0 0 1024 1024" xml:space="preserve">
<path fill="#000000" opacity="1.000000" stroke="none" 
	d="
M488.101837,222.982117 
	C509.970154,221.897629 530.180664,217.389648 548.671509,205.604004 
	C557.741089,199.823242 568.455017,196.771103 579.187500,194.942703 
	C615.825012,188.701126 650.018250,195.882477 682.131287,214.135635 
	C687.066284,216.940704 692.320007,218.893356 697.858093,220.372559 
	C714.668457,224.862549 731.118225,230.535995 744.477112,242.185318 
	C756.517944,252.685196 768.309631,263.557953 777.944885,276.436157 
	C794.615112,298.717133 813.551270,319.144653 830.719055,340.989075 
	C842.033569,355.385864 850.043335,372.079437 859.421997,387.809570 
	C863.421997,394.518463 867.196350,401.305054 871.774719,407.701935 
	C876.939819,414.918732 878.073547,423.933044 878.700989,432.473022 
	C879.926697,449.156250 884.061157,465.304840 886.493347,481.752899 
	C889.851562,504.463623 894.449768,526.994934 893.078369,550.211487 
	C892.401978,561.660706 893.099915,573.172913 893.784424,584.666931 
	C894.739746,600.707703 891.547485,616.513489 889.910522,632.402893 
	C887.838806,652.512207 884.224915,672.353455 878.270386,691.652832 
	C874.041382,705.360046 867.378174,717.897278 857.955444,728.999146 
	C848.705444,739.897522 840.476746,751.665100 831.183960,762.524231 
	C819.635742,776.018921 807.340332,788.764221 793.448914,800.055237 
	C786.179138,805.964111 779.385010,812.582214 772.018555,818.469910 
	C765.892273,823.366211 759.069336,827.094727 752.241211,830.938599 
	C736.509338,839.794739 719.167725,840.370789 701.959351,841.885132 
	C691.138428,842.837341 680.820740,846.614929 669.976135,847.392151 
	C663.334595,847.868103 656.693665,848.921082 650.061890,848.849243 
	C635.438293,848.690857 621.062744,850.073853 607.277649,855.044067 
	C596.872437,858.795715 586.081299,859.545715 575.296814,859.789429 
	C543.981934,860.497375 512.612122,860.798279 481.417358,857.869812 
	C467.175415,856.532898 452.944153,855.165283 438.671631,854.160767 
	C432.460083,853.723572 426.364594,854.511414 420.241058,855.112610 
	C403.515350,856.754944 387.056671,853.130798 370.432129,852.574158 
	C357.602020,852.144409 344.777710,851.022461 332.057251,853.060974 
	C314.727783,855.838074 297.936127,853.220154 281.040009,849.656982 
	C269.241364,847.168762 259.135864,842.250122 249.095322,835.383240 
	C234.839615,825.633362 221.781540,814.212341 205.388123,807.175659 
	C184.801300,798.339172 175.736847,779.640137 170.995056,758.515198 
	C166.819000,739.910767 165.321991,720.707581 156.896927,703.023865 
	C152.869507,694.570618 152.930756,684.535217 149.951797,675.475281 
	C147.979416,669.476685 146.668442,663.258667 145.106079,657.127502 
	C138.681320,631.915161 139.405212,606.316956 141.009140,580.672668 
	C141.093277,579.327393 141.063431,577.687866 142.290009,577.035889 
	C150.164230,572.850769 150.518509,564.597717 151.663437,557.623535 
	C153.787888,544.682556 153.545731,531.456543 153.966034,518.311218 
	C154.527130,500.762421 154.125610,483.030762 158.977417,465.825958 
	C162.417542,453.627045 171.265793,445.078278 178.884521,435.738708 
	C187.070938,425.703308 197.101074,417.179565 203.979309,406.073639 
	C214.513336,389.064911 219.570175,370.434601 218.957291,350.432922 
	C218.579468,338.103088 220.390320,326.382629 224.683426,314.707794 
	C228.261948,304.976135 234.291336,296.968170 242.086884,291.434967 
	C258.228302,279.977966 273.682098,267.540955 290.379913,256.868225 
	C313.771179,241.917313 339.813049,233.113815 365.853577,224.287170 
	C375.180298,221.125793 384.516357,218.544235 394.464355,217.705032 
	C405.559235,216.769073 416.422272,218.306320 427.316803,219.282150 
	C438.286377,220.264740 449.290253,219.546127 460.241302,220.851822 
	C469.322174,221.934570 478.489319,222.293518 488.101837,222.982117 
M435.456787,454.013275 
	C442.035370,441.976837 451.070526,432.175812 462.418701,424.507019 
	C490.148071,405.768219 519.729065,403.224487 550.101440,416.338867 
	C575.478149,427.296204 591.818054,447.060181 599.613953,473.616211 
	C600.707825,477.342346 602.797546,479.708893 605.877563,481.506134 
	C613.815247,486.137970 620.701111,491.939697 626.852051,498.810364 
	C645.495117,519.634827 653.488525,544.007690 649.026978,571.413330 
	C643.571045,604.926270 624.459412,628.559631 592.998413,641.767578 
	C580.773254,646.899902 580.622559,646.542908 575.529846,634.007446 
	C571.391663,623.821472 567.945496,613.451172 565.391052,602.756226 
	C563.974304,596.824829 559.373962,592.600586 554.696960,592.363464 
	C544.692505,591.856262 539.196472,599.570007 541.952393,610.277405 
	C547.406799,631.468994 555.278381,651.694031 566.171570,670.705872 
	C571.634949,680.240906 577.204407,689.851929 585.387451,697.253418 
	C604.723206,714.742676 627.193787,723.569885 653.715515,720.755432 
	C677.304260,718.252258 696.764465,707.815430 711.184448,689.391296 
	C726.270630,670.115967 736.250854,647.889099 743.739685,624.631104 
	C749.655701,606.257629 753.237976,587.452454 754.912231,568.149963 
	C756.432190,550.625366 755.834106,533.245239 753.341309,515.996765 
	C750.272095,494.758911 744.588806,474.145660 735.970886,454.361694 
	C725.324341,429.920471 711.553894,407.479065 693.635925,387.765137 
	C669.497742,361.207703 641.153992,340.402802 607.973328,326.286377 
	C582.982544,315.654236 556.980164,309.059357 529.964355,307.576813 
	C508.742584,306.412231 487.484802,307.139893 466.414642,311.258118 
	C435.006317,317.396912 405.939697,329.132202 379.280304,346.671326 
	C360.608490,358.955505 343.863495,373.501007 329.226532,390.552429 
	C308.833435,414.309418 293.165955,440.671783 283.126984,470.338013 
	C272.977875,500.329620 268.038696,530.970276 270.103973,562.789429 
	C271.042725,577.252808 272.916046,591.455627 276.096863,605.523804 
	C281.377075,628.877563 290.252930,650.862549 302.161896,671.592102 
	C308.809906,683.164062 316.190491,694.332764 326.951569,702.567993 
	C345.182037,716.519348 365.571869,723.267822 388.805450,720.754761 
	C415.634613,717.852722 436.681519,705.227844 451.501984,683.008301 
	C466.744019,660.156555 476.959320,634.973877 483.925995,608.361572 
	C485.848999,601.015869 482.036835,593.496277 474.849121,591.552856 
	C468.574280,589.856262 462.149963,594.421509 460.252808,601.968079 
	C456.882019,615.376648 452.154694,628.301758 446.784485,641.012207 
	C445.633240,643.737000 444.623962,645.870544 440.597168,644.737793 
	C396.297913,632.276245 367.516266,586.784729 376.838684,541.250793 
	C382.308685,514.533264 397.206696,494.328735 420.811554,480.567261 
	C423.652496,478.911041 426.591003,477.274231 427.478363,473.577271 
	C429.079132,466.908142 431.934540,460.718689 435.456787,454.013275 
z"/>
<path fill="#000000" opacity="1.000000" stroke="none" 
	d="
M394.097382,365.991425 
	C421.437897,348.150116 451.117828,337.365723 482.955902,332.928131 
	C500.516663,330.480530 518.243652,330.586121 536.000671,332.383240 
	C564.873962,335.305359 591.971985,343.758728 617.290710,357.647278 
	C639.899475,370.049377 659.822815,385.905579 676.796570,405.544434 
	C689.286255,419.995178 699.898926,435.582886 708.430298,452.584503 
	C718.250061,472.153564 724.880676,492.816284 728.273254,514.464783 
	C730.355835,527.754089 731.793213,541.116943 731.322998,554.601501 
	C730.056763,590.910706 721.037537,625.116516 703.156372,656.833618 
	C697.026978,667.705627 690.592590,678.336365 680.068848,685.849670 
	C657.250427,702.140320 624.635376,700.421204 604.333252,681.085510 
	C601.327881,678.223206 598.444214,675.254395 595.876953,671.928955 
	C593.445312,668.779175 594.121887,667.557495 597.614868,666.340393 
	C609.313171,662.264404 620.284180,656.687805 630.064636,649.047852 
	C651.863892,632.019592 666.002258,609.972168 671.612061,582.880188 
	C679.057678,546.922607 671.208679,514.522461 648.057373,485.801605 
	C642.981445,479.504578 637.537231,473.469727 630.863464,469.306641 
	C623.479187,464.700378 620.336914,457.975098 616.978455,450.688934 
	C600.998230,416.019989 573.908020,394.402649 536.867371,386.578369 
	C501.572388,379.122864 469.168182,387.242950 441.059937,410.151459 
	C426.681396,421.870117 415.519867,436.425079 408.735199,453.789246 
	C406.579926,459.305267 403.183044,462.808777 398.664276,466.000488 
	C370.963959,485.565979 355.338348,512.777588 351.704865,545.984924 
	C348.333344,576.797852 355.939972,605.321045 375.844727,629.943665 
	C389.592285,646.949646 406.737274,658.991760 427.285461,666.303406 
	C428.672394,666.796875 430.237946,666.988098 431.456757,668.651489 
	C424.880310,679.801819 415.053467,687.313538 403.334473,692.538574 
	C381.772522,702.152222 351.859192,695.956726 336.459106,678.170044 
	C325.714081,665.759949 318.422760,651.130127 311.862061,636.159424 
	C305.032562,620.575439 300.156067,604.386841 297.327820,587.638306 
	C293.919586,567.455200 292.826569,547.230286 295.352509,526.740051 
	C297.271301,511.174805 300.051605,495.867310 305.060211,481.073151 
	C314.977325,451.780273 330.156921,425.600708 351.112671,402.595917 
	C363.879974,388.580231 378.262482,376.790314 394.097382,365.991425 
z"/>
</svg>